<mxfile host="app.diagrams.net" modified="2023-06-14T06:06:59.811Z" agent="Mozilla/5.0 (Windows NT 10.0; Win64; x64) AppleWebKit/537.36 (KHTML, like Gecko) Chrome/114.0.0.0 Safari/537.36 Edg/114.0.1823.43" version="21.3.8" etag="q0B_5C16l2RzFc6Vv5Ls" type="github">
  <diagram name="第 1 页" id="AkPrUvhRBGIo_sODVcCK">
    <mxGraphModel>
      <root>
        <mxCell id="0" />
        <mxCell id="1" parent="0" />
      </root>
    </mxGraphModel>
  </diagram>
</mxfile>
